# Wobbleweed tree — hand-built low-poly: hex prism trunk + icosahedron canopy.
# No vt/vn on purpose: the loader computes smooth normals (the Gouraud demo).
# Caps are skipped (ground hides the bottom, the canopy hides the trunk top).

v 0.3400 0.0000 0.0000
v 0.1700 0.0000 0.2944
v -0.1700 0.0000 0.2944
v -0.3400 0.0000 0.0000
v -0.1700 0.0000 -0.2944
v 0.1700 0.0000 -0.2944
v 0.2600 2.3000 0.0000
v 0.1300 2.3000 0.2252
v -0.1300 2.3000 0.2252
v -0.2600 2.3000 0.0000
v -0.1300 2.3000 -0.2252
v 0.1300 2.3000 -0.2252
v -0.8937 4.7461 0.0000
v 0.8937 4.7461 0.0000
v -0.8937 1.8539 0.0000
v 0.8937 1.8539 0.0000
v 0.0000 2.4063 1.4461
v 0.0000 4.1937 1.4461
v 0.0000 2.4063 -1.4461
v 0.0000 4.1937 -1.4461
v 1.4461 3.3000 -0.8937
v 1.4461 3.3000 0.8937
v -1.4461 3.3000 -0.8937
v -1.4461 3.3000 0.8937

usemtl trunk
f 2 1 7 8
f 3 2 8 9
f 4 3 9 10
f 5 4 10 11
f 6 5 11 12
f 1 6 12 7

usemtl leaves
f 13 24 18
f 13 18 14
f 13 14 20
f 13 20 23
f 13 23 24
f 14 18 22
f 18 24 17
f 24 23 15
f 23 20 19
f 20 14 21
f 16 22 17
f 16 17 15
f 16 15 19
f 16 19 21
f 16 21 22
f 17 22 18
f 15 17 24
f 19 15 23
f 21 19 20
f 22 21 14
